<?xml version="1.0" encoding="iso-8859-1"?>
<!-- Generator: Adobe Illustrator 19.0.0, SVG Export Plug-In . SVG Version: 6.00 Build 0)  -->
<svg version="1.1" id="Layer_1" xmlns="http://www.w3.org/2000/svg" xmlns:xlink="http://www.w3.org/1999/xlink" x="0px" y="0px"
	 viewBox="0 0 512 512" style="enable-background:new 0 0 512 512;" xml:space="preserve">
<g>
	<g>
		<path d="M495.432,76.96H16.568C7.432,76.96,0,84.392,0,93.528v324.944c0,9.136,7.432,16.568,16.568,16.568h478.864
			c9.136,0,16.568-7.432,16.568-16.568V93.528C512,84.392,504.568,76.96,495.432,76.96z M495.967,350.597h-26.189
			c-4.427,0-8.017,3.589-8.017,8.017s3.589,8.017,8.017,8.017h26.189v18.171H367.166c-4.427,0-8.017,3.589-8.017,8.017
			c0,4.427,3.589,8.017,8.017,8.017h128.801v17.637c0,0.295-0.239,0.534-0.534,0.534H16.568c-0.295,0-0.534-0.239-0.534-0.534
			v-17.637H332.96c4.427,0,8.017-3.589,8.017-8.017c0-4.427-3.589-8.017-8.017-8.017H16.033V366.63h419.543
			c4.427,0,8.017-3.589,8.017-8.017s-3.589-8.017-8.017-8.017H16.033v-18.198c0.179,0.005,0.354,0.027,0.534,0.027h478.864
			c0.181,0,0.356-0.021,0.534-0.027V350.597z M495.967,315.858c0,0.295-0.239,0.534-0.534,0.534H16.568
			c-0.295,0-0.534-0.239-0.534-0.534V93.528c0-0.295,0.239-0.534,0.534-0.534h478.864c0.295,0,0.534,0.239,0.534,0.534V315.858z"/>
	</g>
</g>
<g>
	<g>
		<path d="M469.779,145.369c-14.44,0-26.188-11.748-26.188-26.188c0-4.427-3.589-8.017-8.017-8.017h-94.066
			c-4.427,0-8.017,3.589-8.017,8.017s3.588,8.017,8.017,8.017h86.813c3.254,16.866,16.575,30.187,33.441,33.441v88.107
			c-16.866,3.254-30.188,16.575-33.441,33.441h-86.813c-4.427,0-8.017,3.589-8.017,8.017s3.589,8.017,8.017,8.017h94.066
			c4.427,0,8.017-3.589,8.017-8.017c0-14.44,11.748-26.188,26.188-26.188c4.427,0,8.017-3.589,8.017-8.017V153.386
			C477.795,148.959,474.206,145.369,469.779,145.369z"/>
	</g>
</g>
<g>
	<g>
		<path d="M170.487,282.188H83.679c-3.254-16.864-16.577-30.186-33.441-33.441V160.64c16.864-3.256,30.188-16.576,33.441-33.441
			h86.808c4.427,0,8.017-3.589,8.017-8.017s-3.589-8.017-8.017-8.017H76.426c-4.427,0-8.017,3.589-8.017,8.017
			c0,14.44-11.748,26.188-26.188,26.188c-4.427,0-8.017,3.589-8.017,8.017V256c0,4.427,3.589,8.017,8.017,8.017
			c14.44,0,26.188,11.748,26.188,26.188c0,4.427,3.589,8.017,8.017,8.017h94.062c4.427,0,8.017-3.589,8.017-8.017
			S174.915,282.188,170.487,282.188z"/>
	</g>
</g>
<g>
	<g>
		<path d="M256,111.165c-51.572,0-93.528,41.957-93.528,93.528s41.956,93.528,93.528,93.528s93.528-41.956,93.528-93.528
			S307.572,111.165,256,111.165z M256,282.188c-42.731,0-77.495-34.764-77.495-77.495s34.764-77.495,77.495-77.495
			s77.495,34.764,77.495,77.495S298.731,282.188,256,282.188z"/>
	</g>
</g>
<g>
	<g>
		<path d="M264.017,198.533v-27.974c11.431,1.758,18.171,6.984,18.171,10.084c0,4.427,3.589,8.017,8.017,8.017
			s8.017-3.589,8.017-8.017c0-13.489-14.236-24.034-34.205-26.274v-0.982c0-4.427-3.589-8.017-8.017-8.017s-8.017,3.589-8.017,8.017
			v0.982c-19.969,2.24-34.205,12.786-34.205,26.274c0,18.806,18.787,25.929,34.205,30.21v27.974
			c-11.431-1.758-18.171-6.984-18.171-10.084c0-4.427-3.589-8.017-8.017-8.017s-8.017,3.589-8.017,8.017
			c0,13.489,14.236,24.034,34.205,26.274V256c0,4.427,3.589,8.017,8.017,8.017s8.017-3.589,8.017-8.017v-0.982
			c19.969-2.24,34.205-12.786,34.205-26.274C298.221,209.937,279.434,202.814,264.017,198.533z M247.983,194.089
			c-13.372-4.204-18.171-7.957-18.171-13.446c0-3.1,6.74-8.326,18.171-10.084V194.089z M264.017,238.827v-23.53
			c13.372,4.204,18.171,7.957,18.171,13.446C282.188,231.843,275.447,237.069,264.017,238.827z"/>
	</g>
</g>
<g>
</g>
<g>
</g>
<g>
</g>
<g>
</g>
<g>
</g>
<g>
</g>
<g>
</g>
<g>
</g>
<g>
</g>
<g>
</g>
<g>
</g>
<g>
</g>
<g>
</g>
<g>
</g>
<g>
</g>
</svg>
